<?xml version="1.0" standalone="no"?>
<!DOCTYPE svg PUBLIC "-//W3C//DTD SVG 20010904//EN"
 "http://www.w3.org/TR/2001/REC-SVG-20010904/DTD/svg10.dtd">
<svg version="1.0" xmlns="http://www.w3.org/2000/svg"
 width="132.000000pt" height="134.000000pt" viewBox="0 0 132.000000 134.000000"
 preserveAspectRatio="xMidYMid meet">

<g transform="translate(0.000000,134.000000) scale(0.100000,-0.100000)"
fill="#000000" stroke="none">
<path d="M60 1263 c0 -5 132 -140 292 -300 l293 -293 -293 -293 c-160 -160
-292 -297 -292 -302 0 -5 134 124 298 288 l297 297 294 -294 c162 -162 299
-292 304 -289 5 3 -124 139 -287 302 l-296 296 295 295 c162 162 292 296 289
299 -3 3 -137 -127 -299 -289 l-295 -295 -293 293 c-160 160 -295 292 -300
292 -4 0 -7 -3 -7 -7z"/>
</g>
</svg>
